<?xml version="1.0" encoding="utf-8"?>
<!-- Generator: Adobe Illustrator 16.0.0, SVG Export Plug-In . SVG Version: 6.00 Build 0)  -->
<!DOCTYPE svg PUBLIC "-//W3C//DTD SVG 1.1//EN" "http://www.w3.org/Graphics/SVG/1.1/DTD/svg11.dtd">
<svg version="1.1" id="Layer_1" xmlns="http://www.w3.org/2000/svg" xmlns:xlink="http://www.w3.org/1999/xlink" x="0px" y="0px"
	 width="170.08px" height="70.87px" viewBox="0 0 170.08 70.87" enable-background="new 0 0 170.08 70.87" xml:space="preserve">
<g>
	<g>
		<path fill="#FFFFFF" d="M56.912,19.227c0.26-0.968,0.889-1.301,1.818-1.052c0.971,0.26,1.391,0.872,1.13,1.842L48.195,63.548
			c-0.258,0.97-0.887,1.3-1.858,1.04c-0.969-0.26-1.348-0.86-1.089-1.83L56.912,19.227z"/>
	</g>
	<g>
		<path fill="#FFFFFF" d="M81.674,19.227c0.261-0.97,0.89-1.3,1.82-1.05c0.969,0.26,1.389,0.871,1.128,1.84L72.958,63.548
			c-0.26,0.97-0.888,1.3-1.858,1.038c-0.969-0.259-1.35-0.858-1.09-1.828L81.674,19.227z"/>
	</g>
	<g>
		<path fill="#FFFFFF" d="M8,12.973c0-1.004,0.482-1.485,1.445-1.485c1.003,0,1.485,0.481,1.485,1.485v25.373h12.887
			c1.004,0,1.485,0.482,1.485,1.445c0,1.004-0.481,1.485-1.485,1.485H9.967C8.643,41.276,8,40.514,8,38.988V12.973z"/>
		<path fill="#FFFFFF" d="M36.117,18.433c5.339,0,8.149,3.211,8.149,7.266v14.414c0,0.763-0.522,1.485-1.485,1.485
			s-1.445-0.683-1.485-1.445s-0.04-1.004-0.04-1.365c-1.727,1.847-4.296,2.811-6.865,2.811c-3.934,0-7.708-2.208-7.708-6.706
			c0-4.697,4.296-7.106,8.511-7.106c2.289,0,4.737,0.683,6.062,2.007V25.98c0-2.77-2.249-4.617-6.022-4.617
			c-2.61,0-4.296,0.963-5.541,0.963c-0.682,0-1.365-0.321-1.365-1.245c0-0.522,0.441-1.164,1.124-1.445
			C31.219,18.914,33.347,18.433,36.117,18.433z M34.913,38.787c3.051,0,6.303-1.605,6.303-4.376c0-2.449-3.051-3.854-6.022-3.854
			c-2.81,0-5.5,1.285-5.5,4.095C29.693,37.543,32.183,38.787,34.913,38.787z"/>
		<path fill="#FFFFFF" d="M92.853,9.761c1.124,0,2.007,0.883,2.007,2.007s-0.883,2.007-2.007,2.007s-2.007-0.883-2.007-2.007
			S91.729,9.761,92.853,9.761z M91.447,19.958c0-1.004,0.521-1.485,1.485-1.485c1.004,0,1.565,0.481,1.565,1.485v19.833
			c0,1.004-0.521,1.485-1.525,1.485s-1.525-0.481-1.525-1.485V19.958z"/>
		<path fill="#FFFFFF" d="M102.072,20.239c0-1.043,0.481-1.565,1.445-1.565c1.003,0,1.484,0.522,1.484,1.565v1.526
			c1.325-2.409,3.654-3.493,6.022-3.493c3.854,0,7.828,2.89,7.828,7.667v13.892c0,0.964-0.481,1.445-1.485,1.445
			c-0.963,0-1.445-0.481-1.445-1.445V27.224c0-4.055-2.689-6.021-5.379-6.021c-2.771,0-5.541,2.047-5.541,6.021v12.607
			c0,0.964-0.481,1.445-1.484,1.445c-0.964,0-1.445-0.481-1.445-1.445V20.239z"/>
		<path fill="#FFFFFF" d="M133.184,18.433c5.34,0,8.15,3.211,8.15,7.266v14.414c0,0.763-0.522,1.485-1.486,1.485
			c-0.963,0-1.445-0.683-1.484-1.445c-0.041-0.763-0.041-1.004-0.041-1.365c-1.727,1.847-4.295,2.811-6.865,2.811
			c-3.934,0-7.707-2.208-7.707-6.706c0-4.697,4.295-7.106,8.51-7.106c2.289,0,4.738,0.683,6.062,2.007V25.98
			c0-2.77-2.248-4.617-6.021-4.617c-2.609,0-4.296,0.963-5.54,0.963c-0.683,0-1.365-0.321-1.365-1.245
			c0-0.522,0.441-1.164,1.124-1.445C128.286,18.914,130.414,18.433,133.184,18.433z M131.979,38.787
			c3.052,0,6.303-1.605,6.303-4.376c0-2.449-3.051-3.854-6.022-3.854c-2.81,0-5.499,1.285-5.499,4.095
			C126.761,37.543,129.25,38.787,131.979,38.787z"/>
		<path fill="#FFFFFF" d="M154.689,38.747c2.168,0,4.938-0.884,4.938-3.494c0-1.967-2.488-3.091-4.617-3.854
			c-3.652-1.325-8.068-3.091-8.068-6.503c0-4.537,3.813-6.544,8.068-6.544c2.088,0,4.297,0.401,6.223,1.445
			c0.522,0.281,0.764,0.843,0.764,1.405c0,0.923-0.603,1.405-1.365,1.405c-0.281,0-0.602-0.08-0.883-0.241
			c-0.964-0.562-2.932-1.044-4.818-1.044c-2.368,0-4.816,0.843-4.816,3.212c0,1.847,3.131,2.81,6.142,4.055
			c3.292,1.365,6.664,2.77,6.664,6.383c0,4.939-4.335,6.745-8.31,6.745c-2.891,0-5.219-0.964-7.428-2.368
			c-0.361-0.241-0.521-0.723-0.521-1.205c0-1.123,0.562-1.646,1.324-1.646c0.361,0,0.764,0.161,1.164,0.441
			C150.555,37.863,152.441,38.747,154.689,38.747z"/>
	</g>
	<path fill="#FFFFFF" d="M67.599,24.514c0.261-0.969,0.89-1.3,1.819-1.05c0.971,0.26,1.389,0.871,1.129,1.84l-5.135,19.163
		c-0.26,0.97-0.889,1.3-1.858,1.039c-0.97-0.26-1.349-0.859-1.089-1.83L67.599,24.514z"/>
</g>
</svg>