<?xml version="1.0" encoding="utf-8"?>
<!-- Generator: Adobe Illustrator 16.0.0, SVG Export Plug-In . SVG Version: 6.00 Build 0)  -->
<!DOCTYPE svg PUBLIC "-//W3C//DTD SVG 1.1//EN" "http://www.w3.org/Graphics/SVG/1.1/DTD/svg11.dtd">
<svg version="1.1" id="Layer_1" xmlns="http://www.w3.org/2000/svg" xmlns:xlink="http://www.w3.org/1999/xlink" x="0px" y="0px"
	 width="70.866px" height="70.871px" viewBox="0 0 70.866 70.871" enable-background="new 0 0 70.866 70.871" xml:space="preserve">
<g>
	<path fill="#013755" d="M27.334,12.47c0.26-0.968,0.889-1.301,1.818-1.052c0.971,0.26,1.391,0.872,1.13,1.842L18.617,56.792
		c-0.258,0.97-0.887,1.3-1.858,1.039c-0.969-0.26-1.348-0.859-1.089-1.83L27.334,12.47z"/>
</g>
<g>
	<path fill="#013755" d="M52.096,12.47c0.261-0.97,0.89-1.3,1.82-1.05c0.969,0.26,1.389,0.871,1.128,1.84L43.38,56.792
		c-0.26,0.97-0.888,1.3-1.858,1.037c-0.969-0.258-1.35-0.857-1.09-1.828L52.096,12.47z"/>
</g>
<path fill="#013755" d="M38.021,17.757c0.261-0.969,0.89-1.3,1.819-1.05c0.971,0.26,1.389,0.871,1.129,1.84l-5.135,19.162
	c-0.26,0.971-0.889,1.301-1.858,1.039c-0.97-0.26-1.349-0.858-1.089-1.83L38.021,17.757z"/>
</svg>